<svg width="14" height="14" viewBox="0 0 14 14" fill="none" xmlns="http://www.w3.org/2000/svg">
<path d="M6.578 13.194C5.45133 13.194 4.888 12.9687 4.888 12.518V9.06H1.482C1.29133 9.06 1.12667 8.904 0.988 8.592C0.849333 8.26267 0.78 7.80333 0.78 7.214C0.78 6.60733 0.970667 6.00067 1.352 5.394C1.73333 4.77 2.106 4.458 2.47 4.458H4.888V1.546C4.888 1.21667 5.174 0.939333 5.746 0.713999C6.33533 0.488666 6.942 0.375999 7.566 0.375999C8.20733 0.375999 8.684 0.445332 8.996 0.583999C9.32533 0.722666 9.49 0.887333 9.49 1.078V4.458H12.922C13.3727 4.458 13.598 5.02133 13.598 6.148C13.598 6.72 13.416 7.35267 13.052 8.046C12.688 8.722 12.3413 9.06 12.012 9.06H9.49V12.128C9.49 12.4227 9.16067 12.674 8.502 12.882C7.86067 13.09 7.21933 13.194 6.578 13.194Z" fill="white"/>
</svg>
